<?xml version="1.0" encoding="UTF-8" standalone="no"?>
<!-- Created with Inkscape (http://www.inkscape.org/) -->

<svg
   width="195.47523mm"
   height="114.0984mm"
   viewBox="0 0 195.47523 114.0984"
   version="1.1"
   id="svg1"
   xml:space="preserve"
   xmlns="http://www.w3.org/2000/svg"
   xmlns:svg="http://www.w3.org/2000/svg"><defs
     id="defs1" /><g
     id="layer1"
     transform="translate(-6.6974735,-20.074779)"><path
       style="fill:#6284bd;stroke:none"
       d="m 21.991446,69.61484 h 1.058333 c 0,-12.89186 2.266226,-29.5833 10.927333,-39.687499 10.81201,-12.613483 35.918015,-11.488567 46.006063,1.322919 8.738218,11.09724 9.404472,28.30189 9.995772,41.80416 0.225463,5.14843 -0.879904,11.88561 1.068749,16.66875 0.579155,-1.38019 0.264585,-3.27577 0.264585,-4.7625 0,-3.94784 -0.235824,-7.96851 -0.505486,-11.90625 C 89.773339,57.96337 89.87733,37.60584 77.289363,26.831753 67.221873,18.21495 47.698242,17.851083 37.072696,25.673999 31.543475,29.74481 28.361109,35.96146 26.31583,42.36276 c -2.741557,8.5805 -4.138737,18.25793 -4.324384,27.25208 m 3.439583,-0.26458 c 8.425988,-2.36876 13.28723,1.78578 19.84375,6.35 -1.64587,-3.18966 -4.429978,-5.83875 -6.236901,-8.99584 -4.252797,-7.43058 -4.980393,-15.23854 -2.22895,-23.28333 1.346446,-3.9368 3.719064,-7.61295 6.296515,-10.84792 1.811198,-2.273242 3.23396,-4.203196 5.873503,-1.852079 h 0.264583 c 2.498814,-2.027743 4.391577,-2.599519 6.128902,0.793749 1.87149,3.65531 1.359651,8.25433 2.310817,12.17083 0.646129,2.66049 2.092394,4.86727 3.018004,7.40834 1.160075,3.18474 1.506861,6.42523 1.506861,9.78958 h 0.264583 c 2.241449,-6.62568 7.904395,-11.05722 11.047783,-17.19792 0.721589,-1.40965 2.295807,-5.47532 4.503222,-4.59796 0.881245,0.35027 1.178748,1.6806 1.463783,2.4813 0.817384,2.29611 1.436016,4.72897 1.770629,7.14375 1.446585,10.43957 -2.446258,21.67456 -11.377084,27.78125 v 0.26458 c 7.709083,0.005 12.322956,4.02648 18.256251,8.20208 C 87.881627,72.57684 87.554676,59.74226 84.53192,47.65442 82.88982,41.08775 80.106907,34.40247 74.643529,30.10434 64.761768,22.330179 46.083386,22.74208 36.811992,31.29538 29.358781,38.17131 27.392727,49.73037 26.150262,59.29609 25.757648,62.31882 24.7853,66.36998 25.431029,69.35026 M 128.61853,30.456507 v 0.793753 c 1.61521,1.42536 1.05834,4.1052 1.05834,6.08541 0,5.48412 0.45938,10.97058 -1.05834,16.13959 h 5.55625 c -2.9372,-7.1362 -1.32291,-16.92774 -1.32291,-24.606253 l -4.23334,1.5875 m 7.40834,0 v 0.793753 c 1.6093,1.34043 1.05833,3.90034 1.05833,5.82083 0,5.28406 0.95378,11.51553 -1.05833,16.40417 h 5.55625 c -2.17263,-5.27859 -1.05834,-12.28247 -1.05834,-17.99167 0,-1.17724 0.65342,-5.628976 -0.42423,-6.314884 -0.8862,-0.564056 -3.18758,0.944016 -4.07368,1.287801 M 51.360196,79.93359 c -0.0064,-3.0386 0.13343,-7.81642 4.497917,-7.50408 1.606224,0.11495 3.047399,1.07934 4.497916,1.68325 1.734326,-6.70354 2.015656,-14.7186 0.223549,-21.43125 -1.082625,-4.05517 -3.407205,-7.39374 -4.076136,-11.64167 -0.468055,-2.97231 -0.357536,-6.18374 -1.562796,-8.99583 -0.478621,-1.11671 -1.373547,-2.657487 -2.787722,-2.556622 -1.197104,0.08539 -2.125774,1.239807 -2.908373,2.027652 -2.289432,2.30479 -4.437169,4.90024 -6.136456,7.67272 -6.750835,11.01433 -4.353085,23.00877 2.519461,33.3375 1.654227,2.48613 3.340292,5.57742 5.73264,7.40833 M 48.714363,78.08151 C 42.470679,68.05532 35.405021,58.22442 39.386779,45.80234 c 1.375925,-4.29254 3.810434,-8.24698 6.758308,-11.64167 0.77138,-0.8883 3.050391,-2.6047 1.467663,-3.771124 -1.720324,-1.267833 -3.372626,1.611534 -4.241908,2.712794 -3.065273,3.88328 -5.633176,8.4262 -6.89754,13.22917 -2.329037,8.84738 0.873073,17.11715 5.884528,24.34166 1.764524,2.54374 3.850561,5.5639 6.356533,7.40834 M 98.456031,36.01276 c 2.299119,-1.94933 3.114759,-3.17465 6.349999,-3.175 0,6.82372 0.80234,14.16116 -1.05833,20.6375 h 5.55625 c -1.72046,-6.57216 -1.05833,-13.74923 -1.05833,-20.6375 3.24748,3.5e-4 4.02183,1.25262 6.35,3.175 l -0.42424,-3.69682 -3.54451,-0.27193 h -8.46667 l -3.279939,0.27193 -0.42423,3.69682 m 15.345839,5.82083 c 3.15479,-2.15509 8.46553,-4.44048 8.99583,1.5875 -1.7041,0.22966 -3.39961,0.77464 -5.02708,1.32393 -1.09792,0.37056 -2.20126,0.77744 -3.17092,1.42439 -2.34373,1.56374 -3.02301,5.34711 -0.25805,6.93081 2.48513,1.42342 5.31932,0.15291 6.85691,-2.00723 0.70443,-0.98964 1.15444,-1.9768 1.33456,-3.17398 h 0.26458 c 0,4.06252 -0.22136,5.55625 4.23333,5.55625 -0.2657,-1.01496 -0.92378,-1.838 -1.03056,-2.91042 -0.32494,-3.26337 0.96839,-7.69306 -1.00751,-10.57925 -2.42798,-3.54654 -10.03556,-2.23476 -11.19109,1.848 m 44.18541,7.14375 c -1.54832,0.58686 -2.81149,1.8165 -4.49791,2.06114 -4.76086,0.69062 -7.14329,-3.48161 -7.14375,-7.61739 h 11.37708 c -0.37898,-8.27439 -12.22321,-6.01885 -13.88675,0.52917 -2.31751,9.12213 10.44381,13.78355 14.15133,5.02708 m 1.5875,-9.26042 v 0.52917 c 2.56013,2.4437 1.18916,10.33999 0,13.22917 h 5.55625 c -1.23495,-3.00046 -1.07501,-5.75235 -1.05812,-8.99584 0.007,-1.37323 0.25995,-3.25178 1.63628,-3.98773 1.6157,-0.86394 4.82708,1.79916 5.83492,-0.80212 0.61051,-1.57578 -1.3583,-1.85226 -2.44433,-1.70448 -2.0455,0.27832 -3.8823,1.43315 -4.7625,3.31933 h -0.26458 l -0.26458,-3.43958 -4.23334,1.85208 m -5.02708,3.175 h -8.20208 c 0.37271,-1.28546 0.76285,-2.68112 1.87984,-3.53145 2.87134,-2.18587 5.88871,0.64984 6.32224,3.53145 M 61.678946,79.66901 c 12.365153,-3.9129 20.736953,-15.98163 19.125335,-29.10417 -0.354468,-2.88623 -0.786354,-5.71295 -1.777976,-8.46667 -0.246368,-0.68414 -0.535312,-2.18819 -1.318428,-2.4574 -1.041441,-0.35802 -1.804597,0.9364 -2.202005,1.66467 -1.280219,2.3461 -2.522327,4.67543 -4.044077,6.87815 -3.041561,4.40264 -7.012326,7.88577 -8.456053,13.22917 -0.99966,3.69986 -1.796014,9.14492 -1.654053,12.96458 0.07765,2.08932 0.918036,3.05866 0.327257,5.29167 M 122.7977,43.95026 c -0.0104,1.25474 -0.13383,2.51223 -0.55673,3.70416 -0.37117,1.04611 -0.99231,2.08706 -1.84922,2.8061 -3.31852,2.78458 -6.86017,-1.84667 -3.40998,-4.51078 0.70438,-0.5439 1.53649,-0.88223 2.37635,-1.15408 1.12639,-0.3646 2.26629,-0.68728 3.43958,-0.8454 m -12.43542,16.40416 v 0.79375 c 1.80103,1.58935 1.05834,5.18889 1.05834,7.40834 -1.50049,-0.6373 -2.89103,-0.79203 -4.49792,-0.56347 -1.44772,0.20591 -2.77811,0.63958 -3.96855,1.51932 -5.700239,4.21245 -2.77544,16.64213 5.29147,13.75812 1.28519,-0.45947 2.21752,-1.34159 3.175,-2.27856 0.0836,2.5685 2.41266,2.73304 4.49791,2.11667 -1.69046,-2.68696 -1.32291,-5.66596 -1.32291,-8.73125 V 58.76692 l -4.23334,1.5875 m 22.75417,0 v 0.79375 c 1.70695,1.42068 1.32292,4.05734 1.32292,6.08542 0,5.35952 0.73406,11.14194 -1.32292,16.13958 h 5.55625 c -1.67106,-5.691 -1.05833,-11.96121 -1.05833,-17.99166 0,-1.17724 0.65341,-5.62898 -0.42424,-6.31489 -0.88621,-0.56406 -3.18758,0.94402 -4.07368,1.2878 m -1.32292,18.52084 c -1.61997,0.44112 -2.77606,1.74143 -4.49791,2.03051 -4.7758,0.8018 -7.14331,-3.48655 -7.14375,-7.58676 h 11.37708 c -0.38299,-8.36089 -12.18995,-6.016 -13.89613,0.52916 -2.38464,9.14778 10.30865,13.66902 14.16071,5.02709 m 8.73125,-0.79375 c 0.0855,1.08309 -0.0587,3.23465 0.68882,4.06163 2.50548,2.77191 9.6849,1.67171 10.78115,-1.94517 1.95237,-6.44149 -6.46533,-4.97833 -8.6161,-8.73513 -1.77835,-3.10628 3.79854,-3.12489 5.3472,-2.12054 1.13927,0.73884 1.7347,2.01046 2.91143,2.65379 -6.4e-4,-0.97853 0.19058,-2.45208 -0.51284,-3.24706 -2.3656,-2.67357 -9.16417,-0.61835 -10.12235,2.45331 -1.88391,6.03932 7.472,4.47931 8.88682,8.46769 1.37073,3.86407 -4.49157,3.2497 -6.18811,1.79471 -1.17578,-1.00838 -1.84569,-2.63391 -3.17602,-3.38323 m -33.86666,-9.43476 c 6.01799,-0.60406 7.05887,12.66417 1.5875,13.07931 -6.01728,0.45656 -7.82983,-12.45274 -1.5875,-13.07931 m 21.69583,4.14309 h -8.20208 c 1.21799,-5.12789 7.3524,-5.64756 8.20208,0 M 53.476863,84.69609 c -1.246957,-1.7702 -2.967834,-3.23488 -4.497917,-4.7625 -4.077545,-4.07099 -9.613674,-9.63943 -15.610417,-10.50392 -4.51177,-0.65042 -8.761741,1.26117 -13.229167,0.95524 -3.350316,-0.22944 -6.679072,-0.73031 -10.054166,-0.4816 -1.0266127,0.0756 -3.0045317,0.40365 -3.3491437,1.59138 -0.292804,1.00918 1.157538,2.25157 1.772056,2.87877 2.3198517,2.36776 5.0936037,4.48204 7.9270877,6.19485 10.86088,6.56526 24.993653,9.31136 37.041667,4.12778 m 1.058535,-11.46874 c -4.238667,1.31535 -3.246213,12.13432 1.587298,10.77053 2.695818,-0.76062 5.888392,-4.22984 5.319637,-7.23827 -0.445201,-2.35489 -4.745774,-4.20292 -6.906935,-3.53226 m 3.703965,11.20416 c 4.368657,3.32856 6.087544,8.84886 10.583333,12.12878 2.592889,1.89165 5.666386,3.12101 8.73125,4.0106 2.734547,0.79371 7.496418,2.4305 10.31875,1.66915 5.259785,-1.41887 4.097285,-9.85348 2.14953,-13.31062 -4.848025,-8.60493 -16.925291,-14.45687 -26.226613,-9.58195 -2.1081,1.10487 -4.534131,2.89223 -5.55625,5.08404 M 21.462279,84.16692 21.197696,119.35651 H 202.1727 v -1.05834 H 91.312281 v -17.99166 h -0.264585 l -0.529166,6.08541 v 11.90625 H 21.991446 c 0,-6.65444 -0.430859,-13.47074 0.02368,-20.10833 0.288585,-4.21418 1.183622,-9.93846 -0.02368,-14.02292 h -0.529167 m 35.454167,1.05834 v 0.52916 c 3.60085,2.74386 4.857528,7.21728 7.752333,10.58313 3.479419,4.0456 8.897668,6.20906 13.9435,7.50653 3.388368,0.87128 7.387873,2.48691 9.789584,-0.89174 -7.175612,-7.8e-4 -16.061754,-2.19018 -21.43125,-7.16763 -2.679815,-2.48416 -4.238348,-5.55981 -6.391241,-8.44177 -0.923752,-1.23658 -2.031158,-2.42278 -3.662926,-2.11768 m -32.279167,0.26458 -0.264583,29.36875 H 88.13728 v -10.31875 c -3.223794,1.92076 -6.343509,0.84562 -9.789584,-0.11228 -4.835178,-1.34404 -9.92353,-3.31129 -13.448836,-7.04189 -2.600988,-2.75244 -4.073169,-6.13121 -6.130331,-9.25 h -0.264583 c 1.547406,4.7556 3.004754,9.54344 4.58611,14.2875 0.490135,1.47041 1.857485,3.85708 0.621243,5.23226 -1.415357,1.57442 -3.639954,0.89886 -4.27253,-0.99913 -1.686651,-5.06064 -2.893186,-11.61929 -3.316073,-16.93313 h -0.264583 c -2.302246,7.19994 -4.444723,14.47147 -9.902073,20.0328 -1.377209,1.40345 -3.141548,2.91335 -5.179178,3.15377 -2.209111,0.26065 -4.338333,-1.71283 -3.704166,-3.87198 -2.024885,-0.0168 -5.720872,-0.98878 -5.601776,-3.70417 0.08379,-1.9103 3.574267,-3.65164 4.721871,-5.02708 2.993653,-3.588 4.048825,-8.55331 6.700738,-12.43542 l -11.641667,-0.6047 -6.614583,-1.77655 m 31.220834,0 c -3.777709,1.07994 -9.760516,3.28076 -11.734761,6.87917 -1.850122,3.37216 -1.431664,7.533 -2.736683,11.1125 -0.707782,1.94135 -5.078671,6.10508 -3.215421,7.83317 2.914426,2.70301 6.973702,-1.12934 8.741864,-3.33526 4.712188,-5.8788 8.617211,-14.87499 8.945001,-22.48958 m -2.910417,0.52917 c -1.136781,-0.26861 -2.556409,0.20981 -3.704167,0.42627 -2.06971,0.39034 -4.441064,0.89624 -6.074799,2.30673 -3.092907,2.67027 -3.47656,7.46184 -5.704468,10.76075 -1.211728,1.79423 -4.705305,3.56741 -5.230216,5.56012 -0.412952,1.56767 1.685104,2.94311 2.986566,3.12111 2.62899,0.35956 4.048021,-1.48446 5.084041,-3.65415 1.8413,-3.85616 1.168537,-8.39368 3.153772,-12.17083 1.86359,-3.54571 6.010886,-4.92294 9.489271,-6.35 m 3.704167,0.26458 c -0.502929,2.11835 0.216883,4.26024 0.634917,6.35 l 2.169748,10.84792 c 0.304597,1.52267 0.497128,5.29686 3.000653,4.30029 2.019249,-0.8038 0.563774,-3.71385 0.103708,-5.09404 -1.229386,-3.68816 -2.480533,-7.39015 -3.601884,-11.1125 -0.538896,-1.78888 -0.853912,-4.02258 -2.307142,-5.29167 m 42.333338,20.37292 c 1.4e-4,1.3284 -0.25147,3.7996 0.68881,4.85824 3.584229,4.0354 12.835179,2.11033 14.190319,-3.00616 2.11206,-7.97437 -9.93929,-6.17382 -11.78253,-11.64268 -1.12814,-3.34718 3.02884,-4.95905 5.63465,-4.35685 2.65207,0.61289 3.7071,2.7301 5.29167,4.62245 2.19988,-7.44251 -10.59904,-6.89286 -12.98583,-1.85209 -3.881119,8.19672 9.02393,7.43987 11.13109,12.7 2.05115,5.1203 -5.58959,5.11062 -8.19842,3.19399 -1.64936,-1.21174 -2.28645,-3.56163 -3.969759,-4.5169 m 63.765599,-14.086 c -2.56951,0.38738 -2.09898,4.28705 0.52713,3.98753 2.63581,-0.30062 2.00361,-4.36906 -0.52713,-3.98753 m -13.49477,5.88391 h 2.11667 c 0,3.66493 -1.19833,9.90277 0.41606,13.22794 1.68263,3.46574 6.53878,1.24462 7.52144,-1.58627 -6.77737,4.07544 -4.7625,-7.60501 -4.7625,-11.64167 h 4.49792 v -0.52916 h -4.49792 v -3.96875 c -1.92789,0.52517 -4.42145,2.712 -5.29167,4.49791 m 18.25625,0 h 1.85209 c 0,3.79434 -1.12148,9.7399 0.47731,13.22794 1.66438,3.63119 6.50627,1.00498 7.72477,-1.58627 -1.1357,0.47684 -2.35863,1.6633 -3.67558,1.12529 -1.24877,-0.51015 -1.33637,-2.09199 -1.35049,-3.24196 -0.039,-3.17396 -0.001,-6.35077 -0.001,-9.525 l 4.7625,-0.26458 v -0.26458 h -4.7625 v -3.96875 c -1.78253,0.49916 -4.4787,2.69835 -5.02709,4.49791 m -37.57083,10.05417 c -1.39384,0.95199 -2.5148,1.94906 -4.23333,2.25835 -4.73509,0.8522 -7.14331,-3.4873 -7.14375,-7.55002 h 11.37708 c -0.21698,-4.73676 -5.27374,-6.50164 -9.26042,-4.90051 -3.1478,1.26422 -5.15271,4.71046 -4.99952,8.07551 0.18023,3.95885 3.52125,7.43443 7.64536,7.09394 2.43494,-0.20104 6.68038,-2.13861 6.61458,-4.97727 m 1.85208,-9.26042 c 1.45434,4.72545 1.39326,9.27781 0,14.02292 h 5.55625 c -0.24551,-0.83611 -0.84355,-1.51147 -0.99811,-2.38227 -0.60053,-3.38353 -1.23529,-13.15792 4.70228,-11.74313 4.02687,0.9595 3.25981,8.75041 2.59601,11.74313 -0.19225,0.86674 -0.76171,1.54174 -1.00851,2.38227 h 5.55625 c -0.27248,-0.92799 -0.92034,-1.6552 -1.02956,-2.64604 -0.46699,-4.23644 1.83602,-13.60951 -5.32044,-12.91742 -0.8224,0.0795 -1.61673,0.34354 -2.38125,0.64512 -1.19991,0.47335 -2.19638,1.12181 -3.175,1.95376 l -0.26458,-2.64584 -4.23334,1.5875 m 28.575,0.26459 v 0.52916 c 2.76857,2.29852 1.61865,10.23571 0,12.96459 l 5.55625,0.26458 -1.03057,-2.91042 -0.29234,-12.7 -4.23334,1.85209 m 18.25625,8.46666 c 0,1.25459 -0.2662,3.10248 0.67842,4.09839 2.60565,2.74713 9.45528,1.51049 10.66989,-1.98172 2.24991,-6.46889 -6.71928,-4.95333 -8.65388,-8.74268 -1.58435,-3.1033 3.61218,-3.34252 5.24286,-2.19813 1.11224,0.78057 1.76393,2.04552 2.91063,2.73873 0,-0.89034 0.30639,-2.50392 -0.27193,-3.24707 -2.08289,-2.67647 -9.22607,-0.71779 -10.13869,2.18873 -2.02651,6.45402 7.33474,4.54205 8.80925,8.73227 1.37252,3.90041 -4.62847,3.22379 -6.32571,1.76389 -1.13314,-0.97467 -1.69523,-2.55269 -2.92084,-3.35241 m -51.85833,-5.29166 h -8.20208 c 1.21798,-5.1279 7.35241,-5.64757 8.20208,0 m -36.512504,19.84375 1.587505,1.85208 -1.587505,-1.85208 m 69.585424,0 -1.05834,1.85208 1.5875,-1.85208 h -0.52916 m 15.08125,0 1.5875,1.85208 -1.5875,-1.85208 m -114.300007,0.26458 v 3.70417 h -0.264584 c -1.910756,-3.5497 -5.814676,0.39201 -4.854371,3.43938 0.689812,2.18899 3.707017,2.9803 4.854371,0.79395 h 0.264584 v 1.32292 h 0.529166 v -9.26042 h -0.529166 m 1.5875,0 -0.264584,2.38125 1.058334,-2.38125 h -0.79375 m 39.687497,0 v 1.05833 h 0.52917 v -1.05833 h -0.52917 m 10.05417,0 v 1.05833 h 0.52917 v -1.05833 h -0.52917 m 42.8625,0 0.79375,1.05833 -0.26458,-1.05833 h -0.52917 m 16.93334,0 v 9.26042 h 0.52916 v -9.26042 h -0.52916 m 16.93333,0 -0.26458,1.05833 0.79375,-1.05833 h -0.52917 m -147.637504,0.52917 -0.79375,2.11666 0.79375,0.26459 c 0,2.24119 -0.956834,6.24935 2.116666,6.35 v -0.52917 h -1.322916 v -5.82083 h 1.322916 v -0.52917 h -1.322916 v -1.85208 h -0.79375 m 32.54375,0 -0.79375,2.11666 0.79375,0.26459 c 0,2.24119 -0.956829,6.24935 2.116667,6.35 v -0.52917 c -2.077385,-0.63063 -1.322917,-4.05809 -1.322917,-5.82083 h 2.38125 c 0,1.88799 -0.961747,6.89831 2.116667,6.08541 v -0.26458 c -2.379151,-0.38838 -1.5875,-3.99048 -1.5875,-5.82083 h 1.5875 v -0.52917 h -1.5875 v -1.85208 h -0.529167 v 1.85208 h -2.38125 v -1.85208 h -0.79375 m 112.183334,0 v 1.85208 h -1.05833 v 0.52917 h 1.05833 c 0,2.13081 -1.00118,6.19192 1.85209,6.35 v -0.52917 c -2.07738,-0.63063 -1.32292,-4.0581 -1.32292,-5.82083 h 1.32292 v -0.52917 h -1.32292 v -1.85208 h -0.52917 m -158.220834,6.35 c -0.871295,0.54908 -1.495329,1.73129 -2.646038,1.73122 -3.096811,-2e-4 -3.096805,-5.57891 0,-5.57912 1.150707,-7e-5 1.774745,1.18214 2.646038,1.73123 -0.772821,-3.81928 -5.771428,-2.52065 -5.771428,1.05833 0,3.56127 5.248234,4.93753 5.771428,1.05834 m 6.35,0.26458 c -2.50964,0.8041 -4.335453,2.65428 -5.291667,-1.32292 h 5.291667 c -0.293922,-3.34125 -4.902428,-5.09399 -5.72978,-1.05833 -0.810803,3.95493 3.925933,6.39452 5.72978,2.38125 m 0.79375,-4.7625 v 6.87917 h 0.529166 c 0,-1.4567 -0.415426,-3.68994 0.311948,-4.99932 0.592261,-1.06617 2.305742,-1.75501 3.080271,-0.4963 0.990742,1.61008 -0.639847,4.36397 1.105698,5.49562 0,-3.19769 0.358643,-8.80585 -4.497917,-6.08542 v -0.79375 h -0.529166 m 9.260417,0 v 6.87917 h 0.529166 c 0,-2.82105 -0.412511,-5.21457 2.645834,-6.35 v -0.26459 l -2.645834,0.79375 v -1.05833 h -0.529166 m 8.73125,4.7625 c -2.13718,1.11868 -4.611791,2.40566 -5.027084,-1.32292 h 5.291667 c -0.273352,-1.04496 -0.430755,-2.23772 -1.379466,-2.90796 -2.32227,-1.64066 -4.832421,0.72223 -4.646337,3.17255 0.255491,3.36424 4.598185,4.4485 5.76122,1.05833 m 10.31875,-2.64583 c 0.959845,-0.33555 1.543526,-1.46715 2.644816,-1.46665 0.864821,4.1e-4 1.93353,0.97811 1.159183,1.80064 -0.938259,0.99664 -2.716977,0.37186 -3.606583,1.57852 -2.139602,2.90215 2.853698,2.78348 4.3005,2.05624 l 1.322917,0.79375 -0.79375,-0.52917 c 0,-1.55243 0.420283,-3.85945 -0.348695,-5.26288 -1.243319,-2.26915 -4.031371,-0.77848 -4.678388,1.02955 m 6.35,-2.11667 v 6.87917 h 0.529166 c 0,-2.82105 -0.412515,-5.21456 2.645834,-6.35 v -0.26459 l -2.645834,0.79375 v -1.05833 h -0.529166 m 15.610417,4.7625 c -2.509642,0.8041 -4.335443,2.65428 -5.291667,-1.32292 h 5.291667 c -0.293934,-3.34124 -4.902431,-5.09399 -5.729786,-1.05833 -0.810804,3.95493 3.925931,6.39452 5.729786,2.38125 m 0.79375,-4.7625 v 6.87917 h 0.529166 l 0.249888,-4.7625 2.131362,-2.11667 -2.38125,1.05833 v -1.05833 H 85.75604 m 3.175,2.11667 c 0.958234,-0.33499 1.542913,-1.46716 2.641961,-1.46665 0.84447,4e-4 1.88884,0.99525 1.15551,1.80064 -0.99389,1.09153 -2.968105,0.31107 -3.789106,1.81146 -1.392769,2.54528 2.556386,3.13886 3.960386,1.8233 h 0.26458 l 1.5875,0.79375 -0.79375,-0.52917 c 0,-1.57172 0.48386,-4.15551 -0.4916,-5.49582 -1.40911,-1.93616 -4.045282,-0.59838 -4.535481,1.26249 m 6.350001,-2.11667 v 8.99583 h 0.52917 v -3.175 c 0.58304,0.46541 1.09268,0.87341 1.85248,0.99729 7.078229,1.15407 1.43272,-11.25129 -1.5879,-5.4952 h -0.26458 v -1.32292 h -0.52917 m 6.614579,0 v 6.87917 h 0.52917 v -6.87917 h -0.52917 m 1.58751,2.11667 c 0.9641,-0.33958 1.52712,-1.51932 2.64195,-1.48788 0.83297,0.0235 1.89616,1.01685 1.15551,1.82105 -0.99324,1.07846 -2.95658,0.28877 -3.7891,1.81228 -1.39121,2.54593 2.55601,3.13922 3.96039,1.8233 h 0.26458 l 1.5875,0.79375 -0.79375,-0.52917 c 0,-1.60027 0.45119,-4.10904 -0.51283,-5.49582 -1.37022,-1.97111 -4.03298,-0.56452 -4.51425,1.26249 m 8.46666,-2.11667 v 6.87917 h 0.52917 v -6.87917 h -0.52917 m 9.26042,4.7625 c -2.47001,0.7914 -4.41783,2.68314 -5.29167,-1.32292 h 5.29167 c -0.29247,-3.32454 -5.02005,-5.11576 -5.76041,-1.05833 -0.71844,3.93737 3.94566,6.41011 5.76041,2.38125 m 0,-4.7625 2.38125,3.175 v 0.26458 l -2.64583,3.43959 3.175,-3.175 2.64583,3.175 -1.9415,-3.70417 1.67692,-3.175 -2.38125,2.64583 -2.91042,-2.64583 m 6.35,0 c -0.5168,1.74838 -1.09213,7.94473 0.52917,8.99583 v -2.91041 c 0.59483,0.3332 1.16153,0.64947 1.85248,0.73352 5.29102,0.64362 3.50415,-10.03647 -1.85248,-5.76061 v -1.05833 h -0.52917 m 6.61458,0 c -0.56944,1.92643 -0.56944,4.95272 0,6.87917 h 0.26459 l 0.57653,-5.01157 2.0693,-1.8676 -2.38125,0.79375 -0.52917,-0.79375 m 8.73125,4.7625 c -2.50963,0.8041 -4.33546,2.65429 -5.29166,-1.32292 h 5.29166 c -0.29394,-3.34124 -4.90244,-5.09399 -5.72978,-1.05833 -0.81081,3.95493 3.92592,6.39451 5.72978,2.38125 m 0.52917,-0.26458 c -0.0805,2.32333 3.83659,3.53439 4.82966,1.26636 1.16267,-2.65538 -2.61848,-2.27693 -3.59616,-3.51777 -0.63557,-0.80664 0.35865,-1.59611 1.14796,-1.59649 1.0057,-4.6e-4 1.60696,0.98534 2.38104,1.46665 -0.42481,-2.08643 -4.32647,-3.25379 -4.58733,-0.52611 -0.21312,2.22827 3.05078,1.54886 3.83809,2.96656 0.55839,1.00549 -0.78021,1.76435 -1.63201,1.70366 -1.09556,-0.078 -1.68302,-1.05713 -2.38125,-1.76286 m 5.55625,0 c -0.0807,2.32883 3.82328,3.52676 4.83049,1.26636 1.23327,-2.76774 -2.59041,-2.24038 -3.59699,-3.51777 -0.63562,-0.80663 0.3587,-1.59611 1.14796,-1.59649 1.0057,-4.6e-4 1.60696,0.98533 2.38104,1.46665 -0.33918,-2.17811 -4.33309,-3.18454 -4.58733,-0.52611 -0.2117,2.21342 3.04198,1.57732 3.85932,2.96656 0.59614,1.01325 -0.80266,1.76405 -1.65303,1.70366 -1.09564,-0.0778 -1.68323,-1.05713 -2.38146,-1.76286 m 5.82083,-4.49792 v 6.87917 c 1.47929,-0.95905 0.98657,-5.33177 0.52917,-6.87917 h -0.52917 m 3.4406,0.19639 c -3.82326,1.4747 -1.66585,8.14743 2.3688,6.41575 3.48005,-1.49366 1.52857,-7.91902 -2.3688,-6.41575 m 7.14274,-0.19639 c -0.51682,1.74837 -1.09212,7.94473 0.52916,8.99583 v -2.91041 c 0.59485,0.3332 1.16149,0.64946 1.85249,0.73352 5.29105,0.64362 3.50411,-10.03649 -1.85249,-5.76061 v -1.05833 h -0.52916 m 8.20208,2.11667 c 0.79388,-0.45682 1.38049,-1.46096 2.38227,-1.48788 0.80111,-0.0215 2.16765,0.95816 1.41131,1.82085 -0.9148,1.04344 -2.89651,0.29818 -3.74601,1.62343 -1.84326,2.87555 2.67799,2.936 4.18576,2.01235 l 1.5875,0.52916 c -1.77912,-1.72878 -0.23107,-3.89716 -1.37028,-5.7604 -1.22581,-2.00487 -4.08347,-0.54045 -4.45055,1.26249 m 5.82083,2.38125 c 0.25648,2.29636 4.18838,3.71982 5.03035,1.04669 0.82871,-2.631 -2.91389,-2.00756 -3.75194,-3.48409 -0.87401,-1.5399 1.63777,-1.43344 2.37962,-0.90277 0.47841,0.34223 0.8472,0.68577 1.36906,0.95892 -0.58258,-1.94365 -4.49635,-3.42788 -4.70779,-0.52917 -0.1595,2.1867 2.78541,1.52523 3.74274,2.75934 0.87442,1.12721 -0.67229,2.05434 -1.67977,1.93109 -1.14425,-0.13998 -1.52651,-1.20728 -2.38227,-1.78001 m 9.26042,-4.49792 c -0.4574,1.5474 -0.95012,5.92013 0.52917,6.87917 v -6.87917 h -0.52917 m 7.14375,4.49792 c -1.08251,0.38218 -1.64394,1.78657 -2.91021,1.75245 -3.22152,-0.0868 -2.87195,-6.08701 0.26417,-5.57769 0.97436,0.15824 1.6722,1.10295 2.38146,1.70857 -0.005,-3.26749 -4.86436,-2.93088 -5.46521,0 -0.84516,4.12259 4.22492,6.41066 5.72979,2.11667 m 0.79375,-2.38125 c 0.77421,-0.48139 1.37538,-1.46711 2.38125,-1.46665 0.87333,4.1e-4 2.04574,1.00108 1.21002,1.83739 -1.063,1.06375 -3.28749,0.23452 -3.85912,2.025 -0.80386,2.51791 3.12336,2.98657 4.2366,1.30842 h 0.26458 l 1.32292,1.05834 c -0.8745,-1.82153 -0.0946,-4.42349 -1.1057,-5.9811 -1.25302,-1.9303 -4.15286,-0.6931 -4.45055,1.2186 m -163.512504,0.79375 h -4.497917 c 0.901542,-2.57249 4.13321,-3.26356 4.497917,0 m 19.05,0 h -4.497917 c 0.587812,-2.90499 3.910106,-2.90499 4.497917,0 m 5.560332,-2.26244 c 3.128899,-0.78222 3.854876,4.88179 1.05017,5.5832 -3.138746,0.78494 -3.922916,-4.86501 -1.05017,-5.5832 m 26.454252,2.26244 h -4.497917 c 0.901544,-2.57248 4.133202,-3.26357 4.497917,0 m 13.497831,-2.26244 c 3.089309,-0.7733 3.691769,4.90767 1.04363,5.5832 -3.1986,0.81595 -3.9218,-4.86274 -1.04363,-5.5832 m 22.750089,2.26244 h -4.49792 c 0.83152,-2.64503 4.13886,-3.21302 4.49792,0 m 9.52602,-2.25488 c 3.1014,-0.66383 3.60357,4.91555 0.7915,5.57462 -3.06677,0.71877 -3.66885,-4.95876 -0.7915,-5.57462 m 12.16981,2.25488 h -4.49791 c 0.8315,-2.64505 4.13884,-3.213 4.49791,0 m 16.66977,-2.26244 c 3.24983,-0.79815 4.05282,4.84727 1.0563,5.5832 -3.24984,0.79815 -4.05281,-4.84727 -1.0563,-5.5832 m 8.99583,0.008 c 3.1014,-0.66383 3.60358,4.91555 0.79151,5.57462 -3.06677,0.71877 -3.66883,-4.95877 -0.79151,-5.57462 m -100.542684,2.51946 c -0.0021,0.59561 0.06448,1.27474 -0.159648,1.84085 -1.223213,3.08959 -5.253931,-0.17282 -2.47067,-1.22063 0.82719,-0.31141 1.773087,-0.39844 2.630318,-0.62022 m 25.929165,0 c -0.002,0.59561 0.0645,1.27474 -0.15965,1.84085 -1.24375,3.14148 -5.567058,-0.3119 -2.216697,-1.29638 0.775837,-0.22797 1.592067,-0.34156 2.376347,-0.54447 m 14.552089,0 c -0.002,0.59561 0.0645,1.27474 -0.15965,1.84085 -1.23733,3.12525 -5.62723,-0.30178 -2.21752,-1.29638 0.77684,-0.2266 1.59236,-0.34143 2.37717,-0.54447 m 70.11458,0 c -0.005,0.60604 0.0389,1.26725 -0.1964,1.84085 -1.27542,3.10919 -6.07463,-0.36394 -1.65608,-1.42274 0.61606,-0.14763 1.23222,-0.29016 1.85248,-0.41811 m 23.01875,0 c -0.013,0.60978 0.006,1.2531 -0.2364,1.82758 -1.36121,3.23038 -5.94486,-0.50051 -1.87925,-1.40294 0.70167,-0.15575 1.41011,-0.28781 2.11565,-0.42464 z"
       id="path1" /></g></svg>
